<svg width="216" height="56" viewBox="0 0 216 56" fill="none" xmlns="http://www.w3.org/2000/svg">
<g filter="url(#filter0_d_5_4)">
<path d="M23.7764 8.91528C24.0701 7.27408 25.6208 6.18495 27.2401 6.48266L35.7471 8.0467C37.3663 8.3444 38.4409 9.9162 38.1472 11.5574L37.7654 13.6912L23.3946 11.0491L23.7764 8.91528Z" fill="#2FB5C0"/>
</g>
<g filter="url(#filter1_d_5_4)">
<path d="M17.403 41.5665L31.7738 44.2086L31.3108 46.7956C31.0172 48.4368 29.4664 49.5259 27.8472 49.2282L19.3402 47.6642C17.721 47.3665 16.6464 45.7947 16.9401 44.1535L17.403 41.5665Z" fill="#2FB5C0"/>
</g>
<g filter="url(#filter2_d_5_4)">
<rect width="22.4559" height="6.99286" rx="3" transform="matrix(0.977293 0.179679 -0.17725 0.990553 19.0552 11.5811)" fill="#2FB5C0"/>
</g>
<g filter="url(#filter3_d_5_4)">
<rect width="22.4559" height="7.02763" rx="3" transform="matrix(0.977293 0.179679 -0.17725 0.990553 15.4932 32.8662)" fill="#2FB5C0"/>
</g>
<g filter="url(#filter4_d_5_4)">
<rect width="12.3322" height="5.20431" transform="matrix(0.181031 -0.98987 0.976581 0.183505 23.6684 33.3584)" fill="#2FB5C0"/>
</g>
<g filter="url(#filter5_d_5_4)">
<path d="M57.6548 43.77V13.2245H77.8793V18.5491H64.1129V25.8275H76.5369V31.1521H64.1129V43.77H57.6548ZM82.1459 43.77V20.8609H88.4996V43.77H82.1459ZM85.3376 17.9078C84.393 17.9078 83.5827 17.5945 82.9065 16.9681C82.2403 16.3318 81.9072 15.5711 81.9072 14.6862C81.9072 13.8112 82.2403 13.0605 82.9065 12.434C83.5827 11.7977 84.393 11.4795 85.3376 11.4795C86.2822 11.4795 87.0876 11.7977 87.7538 12.434C88.43 13.0605 88.768 13.8112 88.768 14.6862C88.768 15.5711 88.43 16.3318 87.7538 16.9681C87.0876 17.5945 86.2822 17.9078 85.3376 17.9078ZM105.817 20.8609V25.6336H92.0204V20.8609H105.817ZM95.1525 15.3722H101.506V36.7302C101.506 37.3168 101.596 37.7742 101.775 38.1024C101.954 38.4205 102.202 38.6443 102.52 38.7735C102.849 38.9028 103.226 38.9674 103.654 38.9674C103.952 38.9674 104.251 38.9426 104.549 38.8928C104.847 38.8332 105.076 38.7884 105.235 38.7586L106.234 43.4866C105.916 43.586 105.469 43.7004 104.892 43.8296C104.315 43.9688 103.614 44.0534 102.789 44.0832C101.258 44.1428 99.9153 43.939 98.7619 43.4717C97.6184 43.0043 96.7285 42.2785 96.0922 41.2941C95.4558 40.3097 95.1426 39.0668 95.1525 37.5654V15.3722ZM109.789 43.77V39.9369L125.032 18.5491H109.759V13.2245H133.145V17.0576L117.887 38.4454H133.175V43.77H109.789ZM148.404 44.2174C146.087 44.2174 144.084 43.7252 142.393 42.7409C140.713 41.7465 139.415 40.3644 138.501 38.5945C137.586 36.8147 137.128 34.7515 137.128 32.4049C137.128 30.0384 137.586 27.9703 138.501 26.2004C139.415 24.4205 140.713 23.0384 142.393 22.0541C144.084 21.0597 146.087 20.5626 148.404 20.5626C150.721 20.5626 152.719 21.0597 154.4 22.0541C156.09 23.0384 157.393 24.4205 158.307 26.2004C159.222 27.9703 159.68 30.0384 159.68 32.4049C159.68 34.7515 159.222 36.8147 158.307 38.5945C157.393 40.3644 156.09 41.7465 154.4 42.7409C152.719 43.7252 150.721 44.2174 148.404 44.2174ZM148.434 39.2955C149.488 39.2955 150.368 38.9972 151.074 38.4007C151.78 37.7941 152.312 36.9688 152.67 35.9248C153.037 34.8808 153.221 33.6926 153.221 32.3602C153.221 31.0278 153.037 29.8396 152.67 28.7955C152.312 27.7515 151.78 26.9262 151.074 26.3197C150.368 25.7132 149.488 25.4099 148.434 25.4099C147.37 25.4099 146.475 25.7132 145.749 26.3197C145.033 26.9262 144.491 27.7515 144.123 28.7955C143.765 29.8396 143.587 31.0278 143.587 32.3602C143.587 33.6926 143.765 34.8808 144.123 35.9248C144.491 36.9688 145.033 37.7941 145.749 38.4007C146.475 38.9972 147.37 39.2955 148.434 39.2955ZM170.207 30.5257V43.77H163.853V20.8609H169.908V24.9028H170.177C170.684 23.5704 171.534 22.5164 172.727 21.7409C173.92 20.9553 175.367 20.5626 177.067 20.5626C178.658 20.5626 180.045 20.9106 181.229 21.6066C182.412 22.3026 183.332 23.297 183.988 24.5896C184.644 25.8722 184.972 27.4035 184.972 29.1833V43.77H178.619V30.3168C178.629 28.9149 178.271 27.8211 177.545 27.0356C176.819 26.2401 175.82 25.8424 174.547 25.8424C173.692 25.8424 172.936 26.0264 172.28 26.3943C171.633 26.7622 171.126 27.2991 170.758 28.0051C170.401 28.7011 170.217 29.5413 170.207 30.5257ZM200.462 44.2174C198.106 44.2174 196.077 43.7401 194.377 42.7856C192.687 41.8211 191.384 40.4589 190.469 38.699C189.555 36.9291 189.097 34.836 189.097 32.4198C189.097 30.0633 189.555 27.9951 190.469 26.2153C191.384 24.4355 192.672 23.0484 194.332 22.0541C196.003 21.0597 197.962 20.5626 200.209 20.5626C201.72 20.5626 203.127 20.8062 204.43 21.2934C205.742 21.7707 206.886 22.4916 207.86 23.4561C208.844 24.4205 209.61 25.6336 210.157 27.0953C210.704 28.547 210.977 30.2472 210.977 32.1961V33.9411H191.633V30.0036H204.996C204.996 29.0889 204.797 28.2785 204.4 27.5725C204.002 26.8666 203.45 26.3147 202.744 25.917C202.048 25.5093 201.238 25.3055 200.313 25.3055C199.349 25.3055 198.493 25.5292 197.748 25.9766C197.012 26.4141 196.435 27.0058 196.018 27.7515C195.6 28.4873 195.386 29.3076 195.376 30.2124V33.9561C195.376 35.0896 195.585 36.069 196.003 36.8943C196.43 37.7195 197.032 38.3559 197.807 38.8034C198.583 39.2508 199.503 39.4745 200.567 39.4745C201.273 39.4745 201.919 39.3751 202.506 39.1762C203.092 38.9774 203.594 38.6791 204.012 38.2813C204.43 37.8836 204.748 37.3964 204.966 36.8197L210.843 37.2075C210.545 38.6194 209.933 39.8524 209.008 40.9063C208.094 41.9504 206.91 42.7657 205.459 43.3524C204.017 43.9291 202.351 44.2174 200.462 44.2174Z" fill="white"/>
</g>
<defs>
<filter id="filter0_d_5_4" x="22.3946" y="6.43364" width="16.8009" height="9.25761" filterUnits="userSpaceOnUse" color-interpolation-filters="sRGB">
<feFlood flood-opacity="0" result="BackgroundImageFix"/>
<feColorMatrix in="SourceAlpha" type="matrix" values="0 0 0 0 0 0 0 0 0 0 0 0 0 0 0 0 0 0 127 0" result="hardAlpha"/>
<feOffset dy="1"/>
<feGaussianBlur stdDeviation="0.5"/>
<feComposite in2="hardAlpha" operator="out"/>
<feColorMatrix type="matrix" values="0 0 0 0 0 0 0 0 0 0 0 0 0 0 0 0 0 0 0.25 0"/>
<feBlend mode="normal" in2="BackgroundImageFix" result="effect1_dropShadow_5_4"/>
<feBlend mode="normal" in="SourceGraphic" in2="effect1_dropShadow_5_4" result="shape"/>
</filter>
<filter id="filter1_d_5_4" x="15.8917" y="41.5665" width="16.882" height="9.71078" filterUnits="userSpaceOnUse" color-interpolation-filters="sRGB">
<feFlood flood-opacity="0" result="BackgroundImageFix"/>
<feColorMatrix in="SourceAlpha" type="matrix" values="0 0 0 0 0 0 0 0 0 0 0 0 0 0 0 0 0 0 127 0" result="hardAlpha"/>
<feOffset dy="1"/>
<feGaussianBlur stdDeviation="0.5"/>
<feComposite in2="hardAlpha" operator="out"/>
<feColorMatrix type="matrix" values="0 0 0 0 0 0 0 0 0 0 0 0 0 0 0 0 0 0 0.25 0"/>
<feBlend mode="normal" in2="BackgroundImageFix" result="effect1_dropShadow_5_4"/>
<feBlend mode="normal" in="SourceGraphic" in2="effect1_dropShadow_5_4" result="shape"/>
</filter>
<filter id="filter2_d_5_4" x="17.2991" y="12.0712" width="24.2187" height="11.9816" filterUnits="userSpaceOnUse" color-interpolation-filters="sRGB">
<feFlood flood-opacity="0" result="BackgroundImageFix"/>
<feColorMatrix in="SourceAlpha" type="matrix" values="0 0 0 0 0 0 0 0 0 0 0 0 0 0 0 0 0 0 127 0" result="hardAlpha"/>
<feOffset dy="1"/>
<feGaussianBlur stdDeviation="0.5"/>
<feComposite in2="hardAlpha" operator="out"/>
<feColorMatrix type="matrix" values="0 0 0 0 0 0 0 0 0 0 0 0 0 0 0 0 0 0 0.25 0"/>
<feBlend mode="normal" in2="BackgroundImageFix" result="effect1_dropShadow_5_4"/>
<feBlend mode="normal" in="SourceGraphic" in2="effect1_dropShadow_5_4" result="shape"/>
</filter>
<filter id="filter3_d_5_4" x="13.731" y="33.3562" width="24.2248" height="12.0161" filterUnits="userSpaceOnUse" color-interpolation-filters="sRGB">
<feFlood flood-opacity="0" result="BackgroundImageFix"/>
<feColorMatrix in="SourceAlpha" type="matrix" values="0 0 0 0 0 0 0 0 0 0 0 0 0 0 0 0 0 0 127 0" result="hardAlpha"/>
<feOffset dy="1"/>
<feGaussianBlur stdDeviation="0.5"/>
<feComposite in2="hardAlpha" operator="out"/>
<feColorMatrix type="matrix" values="0 0 0 0 0 0 0 0 0 0 0 0 0 0 0 0 0 0 0.25 0"/>
<feBlend mode="normal" in2="BackgroundImageFix" result="effect1_dropShadow_5_4"/>
<feBlend mode="normal" in="SourceGraphic" in2="effect1_dropShadow_5_4" result="shape"/>
</filter>
<filter id="filter4_d_5_4" x="22.6684" y="21.1511" width="9.31495" height="15.1623" filterUnits="userSpaceOnUse" color-interpolation-filters="sRGB">
<feFlood flood-opacity="0" result="BackgroundImageFix"/>
<feColorMatrix in="SourceAlpha" type="matrix" values="0 0 0 0 0 0 0 0 0 0 0 0 0 0 0 0 0 0 127 0" result="hardAlpha"/>
<feOffset dy="1"/>
<feGaussianBlur stdDeviation="0.5"/>
<feComposite in2="hardAlpha" operator="out"/>
<feColorMatrix type="matrix" values="0 0 0 0 0 0 0 0 0 0 0 0 0 0 0 0 0 0 0.25 0"/>
<feBlend mode="normal" in2="BackgroundImageFix" result="effect1_dropShadow_5_4"/>
<feBlend mode="normal" in="SourceGraphic" in2="effect1_dropShadow_5_4" result="shape"/>
</filter>
<filter id="filter5_d_5_4" x="55.6548" y="11.4795" width="157.322" height="36.7379" filterUnits="userSpaceOnUse" color-interpolation-filters="sRGB">
<feFlood flood-opacity="0" result="BackgroundImageFix"/>
<feColorMatrix in="SourceAlpha" type="matrix" values="0 0 0 0 0 0 0 0 0 0 0 0 0 0 0 0 0 0 127 0" result="hardAlpha"/>
<feOffset dy="2"/>
<feGaussianBlur stdDeviation="1"/>
<feComposite in2="hardAlpha" operator="out"/>
<feColorMatrix type="matrix" values="0 0 0 0 0 0 0 0 0 0 0 0 0 0 0 0 0 0 0.25 0"/>
<feBlend mode="normal" in2="BackgroundImageFix" result="effect1_dropShadow_5_4"/>
<feBlend mode="normal" in="SourceGraphic" in2="effect1_dropShadow_5_4" result="shape"/>
</filter>
</defs>
</svg>
